<?xml version="1.0" encoding="utf-8"?>
<!-- Generator: Adobe Illustrator 23.0.2, SVG Export Plug-In . SVG Version: 6.00 Build 0)  -->
<svg version="1.1" xmlns="http://www.w3.org/2000/svg" xmlns:xlink="http://www.w3.org/1999/xlink" x="0px" y="0px"
	 viewBox="0 0 130 130" style="enable-background:new 0 0 130 130;" xml:space="preserve">
<style type="text/css">
	.st0{fill:#FFFFFF;}
	.st1{fill:#FFCE00;}
	.st2{fill:#562912;}
	.st3{fill:#61C0EB;}
	.st4{opacity:0.4;}
	.st5{fill:#E55725;}
	.st6{fill:#CC342F;}
	.st7{fill:url(#SVGID_1_);}
	.st8{fill:#D24103;}
	.st9{fill:#8D4D21;}
	.st10{fill:#261F11;}
	.st11{fill:#483D23;}
	.st12{fill:url(#SVGID_2_);}
	.st13{fill:#20BEE8;}
	.st14{fill:#0CACC6;}
	.st15{fill:#1CCB32;}
	.st16{fill:none;stroke:#562912;stroke-width:4;stroke-linecap:round;stroke-miterlimit:10;}
	.st17{fill:#333333;}
	.st18{fill:#ED9514;}
	.st19{fill:#EFECE1;}
	.st20{fill:none;stroke:#562912;stroke-width:3;stroke-miterlimit:10;}
	.st21{fill:none;stroke:#757575;stroke-width:5;stroke-miterlimit:10;}
	.st22{fill:#757575;}
</style>
<g id="Layer_1_1_">
	<g>
		<path class="st22" d="M65,110.78c-25.24,0-45.78-20.54-45.78-45.78S39.76,19.22,65,19.22S110.78,39.76,110.78,65
			S90.24,110.78,65,110.78z M65,24.22c-22.49,0-40.78,18.29-40.78,40.78S42.52,105.78,65,105.78c22.48,0,40.78-18.29,40.78-40.78
			S87.48,24.22,65,24.22z"/>
		<g>
			<g>
				<g>
					<path class="st22" d="M90.08,59.42c0.45,0.28,1.04-0.04,1.04-0.56c0,0,0-0.01,0-0.01c0-3.16-2.56-5.72-5.72-5.72
						c-3.16,0-5.72,2.56-5.72,5.72c0,0.01,0,0.01,0,0.01c0,0.53,0.59,0.84,1.04,0.56c1.36-0.84,2.96-1.33,4.68-1.33
						C87.12,58.09,88.72,58.58,90.08,59.42z"/>
				</g>
			</g>
			<g>
				<g>
					<path class="st22" d="M49.27,59.42c0.45,0.28,1.04-0.04,1.04-0.56c0,0,0-0.01,0-0.01c0-3.16-2.56-5.72-5.72-5.72
						c-3.16,0-5.72,2.56-5.72,5.72c0,0.01,0,0.01,0,0.01c0,0.53,0.59,0.84,1.04,0.56c1.36-0.84,2.96-1.33,4.68-1.33
						C46.31,58.09,47.91,58.58,49.27,59.42z"/>
				</g>
			</g>
		</g>
		<g>
			<g>
				<g>
					<path class="st22" d="M65.24,84.71c-7.24,0-14.41-2.8-19.66-7.68c-0.86-0.8-0.91-2.13-0.11-2.99c0.79-0.86,2.13-0.91,2.99-0.11
						c4.48,4.16,10.59,6.55,16.78,6.55c5.97,0,11.92-2.24,16.35-6.16c0.88-0.77,2.21-0.69,2.99,0.18c0.77,0.88,0.69,2.21-0.18,2.99
						C79.12,82.15,72.32,84.71,65.24,84.71z"/>
				</g>
			</g>
		</g>
	</g>
</g>
<g id="Layer_1">
</g>
</svg>
